<svg id="Capa_1" data-name="Capa 1" xmlns="http://www.w3.org/2000/svg" viewBox="0 0 636.99 102.12"><defs><style>.cls-1{fill:#c10d19;}</style></defs><title>logo-letter</title><path class="cls-1" d="M364.71,429.82a47.78,47.78,0,0,1,2.68-14.25,65.86,65.86,0,0,0,25.81,5.5c13.12,0,20.46-4.23,20.46-12.55s-5.36-12-18.62-17.77l-7.19-3.1c-13.26-5.79-22.29-13.26-22.29-28.21,0-16.08,11.14-26.38,34-26.38a77.37,77.37,0,0,1,25.81,4.09,54.13,54.13,0,0,1-2.82,14.11,71.53,71.53,0,0,0-23.13-4.09c-12.27,0-17.91,4.79-17.91,12.27,0,7.33,5.5,11.56,15.37,15.8l7.62,3.24c17.91,7.62,25.39,15.66,25.39,29.34,0,16.22-12.27,27.36-36.25,27.36-11.57,0-21-1.69-28.92-5.36M505.62,362.4v70.52H491.38l-.85-8.46c-3.95,6.21-10,10.15-19.89,10.15-18.62,0-31-13.54-31-37.23,0-24.82,13.26-38.93,39.35-38.93,10.16,0,18.48,1.13,26.66,3.95m-15.51,54.44V372.56a63.5,63.5,0,0,0-11.15-.85c-16.08,0-23.55,9.87-23.55,25.67,0,14.39,5.78,24.54,19.6,24.54a24.27,24.27,0,0,0,15.1-5.08M585,385.53v47.39H569.52V388.21c0-11.14-3.67-16.5-19.18-16.5a77.43,77.43,0,0,0-12.28,1.13v60.08H522.55V362.4c9.87-2.4,20.73-3.95,28.21-3.95,26,0,34.27,10,34.27,27.08m43,35.83a35.09,35.09,0,0,0,12.13-2.12,131.46,131.46,0,0,1-1.83,13.12,35.24,35.24,0,0,1-13.12,2.25c-15.09,0-24.68-6.91-24.68-24.11V336.45a53.74,53.74,0,0,1,15.52-2.26v26.66h24.54a120.48,120.48,0,0,1-1.41,13.26H616.07v34.55c0,9.17,4.51,12.7,12,12.7m83.23-59v70.52H697l-.85-8.46c-3.95,6.21-10,10.15-19.88,10.15-18.62,0-31-13.54-31-37.23,0-24.82,13.25-38.93,39.35-38.93,10.15,0,18.48,1.13,26.66,3.95m-15.52,54.44V372.56a63.38,63.38,0,0,0-11.14-.85c-16.08,0-23.56,9.87-23.56,25.67,0,14.39,5.79,24.54,19.61,24.54a24.26,24.26,0,0,0,15.09-5.08m94.93-31.31v47.39H775.17V388.21c0-11.14-3.67-16.5-19.18-16.5a77.2,77.2,0,0,0-12.27,1.13v60.08H728.2V362.4c9.88-2.4,20.74-3.95,28.21-3.95,26,0,34.28,10,34.28,27.08m78.7-51.34v98.73H855.15l-.85-9c-3.95,6.63-10,10.71-20.17,10.71-18.62,0-31-13.54-31-37.23,0-24.82,13.26-38.93,39.35-38.93A60.38,60.38,0,0,1,854,359.58V336.31c4.8-1.7,10.3-2.12,15.37-2.12M854,416.56V373.12a61.72,61.72,0,0,0-12.41-1.41c-15.38,0-22.71,9.59-22.71,25.67,0,14.39,5.78,24.54,19.6,24.54A24.83,24.83,0,0,0,854,416.56m93.37-13.82h-49.5c2,12.55,9.31,18.62,23.13,18.62A60.53,60.53,0,0,0,945.84,416c-.56,4.09-1.41,9.45-2.39,14.1-7.06,3.25-14.53,4.51-22.85,4.51-26,0-38.51-14.38-38.51-38.5,0-21,9.73-37.66,34.42-37.66,22.14,0,31.73,14.53,31.73,32.3a82,82,0,0,1-.85,12m-49.78-13h35c0-11.56-6.2-18.33-16.92-18.33-11,0-16.78,6.34-18,18.33M1001.7,359a57.55,57.55,0,0,1-1.41,13.26,100.92,100.92,0,0,0-11.71-.56,77.11,77.11,0,0,0-11.42.85v60.36H961.64V362.4c6.63-2.26,17.78-3.95,26.52-3.95a127.3,127.3,0,0,1,13.54.56" transform="translate(-364.71 -333.06)"/></svg>