<?xml version="1.0" encoding="utf-8"?>
<!-- Generator: Adobe Illustrator 22.1.0, SVG Export Plug-In . SVG Version: 6.00 Build 0)  -->
<svg version="1.1" id="Capa_1" xmlns="http://www.w3.org/2000/svg" xmlns:xlink="http://www.w3.org/1999/xlink" x="0px" y="0px"
	 viewBox="0 0 637 102.1" style="enable-background:new 0 0 637 102.1;" xml:space="preserve">
<style type="text/css">
	.st0{fill:#FFFFFF;}
</style>
<title>logo-letter</title>
<path class="st0" d="M0,96.8c0.2-4.9,1.1-9.7,2.7-14.3c8.1,3.6,16.9,5.4,25.8,5.5c13.1,0,20.5-4.2,20.5-12.5s-5.4-12-18.6-17.8
	l-7.2-3.1C9.9,48.8,0.8,41.3,0.8,26.4C0.8,10.3,12,0,34.8,0c8.8-0.1,17.5,1.3,25.8,4.1c-0.3,4.8-1.3,9.6-2.8,14.1
	c-7.4-2.6-15.2-4-23.1-4.1c-12.3,0-17.9,4.8-17.9,12.3c0,7.3,5.5,11.6,15.4,15.8l7.6,3.2C57.7,53,65.2,61.1,65.2,74.8
	c0,16.2-12.3,27.4-36.3,27.4C17.4,102.1,7.9,100.4,0,96.8 M140.9,29.3v70.5h-14.2l-0.9-8.5c-4,6.2-10,10.1-19.9,10.1
	c-18.6,0-31-13.5-31-37.2c0-24.8,13.3-38.9,39.4-38.9C124.4,25.4,132.8,26.5,140.9,29.3 M125.4,83.8V39.5c-3.7-0.6-7.4-0.9-11.1-0.9
	c-16.1,0-23.5,9.9-23.5,25.7c0,14.4,5.8,24.5,19.6,24.5C115.8,88.9,121.1,87.1,125.4,83.8 M220.3,52.5v47.4h-15.5V55.1
	c0-11.1-3.7-16.5-19.2-16.5c-4.1,0-8.2,0.4-12.3,1.1v60.1h-15.5V29.3c9.9-2.4,20.7-4,28.2-4C212.1,25.4,220.3,35.4,220.3,52.5
	 M263.3,88.3c4.1,0,8.2-0.7,12.1-2.1c-0.4,4.4-1,8.8-1.8,13.1c-4.2,1.6-8.6,2.3-13.1,2.3c-15.1,0-24.7-6.9-24.7-24.1v-74
	c5-1.5,10.3-2.3,15.5-2.3v26.7h24.5c-0.2,4.4-0.7,8.9-1.4,13.3h-23.1v34.5C251.4,84.8,255.9,88.3,263.3,88.3 M346.6,29.3v70.5h-14.3
	l-0.8-8.5c-4,6.2-10,10.1-19.9,10.1c-18.6,0-31-13.5-31-37.2c0-24.8,13.3-38.9,39.3-38.9C330.1,25.4,338.4,26.5,346.6,29.3
	 M331,83.7V39.5c-3.7-0.6-7.4-0.9-11.1-0.9c-16.1,0-23.6,9.9-23.6,25.7c0,14.4,5.8,24.5,19.6,24.5C321.4,88.9,326.7,87.1,331,83.7
	 M426,52.5v47.4h-15.5V55.1c0-11.1-3.7-16.5-19.2-16.5c-4.1,0-8.2,0.4-12.3,1.1v60.1h-15.5V29.3c9.9-2.4,20.7-4,28.2-4
	C417.7,25.4,426,35.4,426,52.5 M504.7,1.1v98.7h-14.2l-0.8-9c-4,6.6-10,10.7-20.2,10.7c-18.6,0-31-13.5-31-37.2
	c0-24.8,13.3-38.9,39.3-38.9c3.9,0,7.7,0.4,11.5,1.1V3.3C494.1,1.5,499.6,1.1,504.7,1.1 M489.3,83.5V40.1c-4.1-0.9-8.2-1.4-12.4-1.4
	c-15.4,0-22.7,9.6-22.7,25.7c0,14.4,5.8,24.5,19.6,24.5C479.4,88.9,484.9,87,489.3,83.5 M582.7,69.7h-49.5
	c2,12.5,9.3,18.6,23.1,18.6c8.6,0,17-1.8,24.8-5.4c-0.6,4.1-1.4,9.5-2.4,14.1c-7.1,3.3-14.5,4.5-22.8,4.5c-26,0-38.5-14.4-38.5-38.5
	c0-21,9.7-37.7,34.4-37.7c22.1,0,31.7,14.5,31.7,32.3C583.5,61.7,583.3,65.7,582.7,69.7 M532.9,56.7h35c0-11.6-6.2-18.3-16.9-18.3
	C540,38.4,534.2,44.7,532.9,56.7 M637,25.9c0,4.5-0.4,8.9-1.4,13.3c-3.9-0.4-7.8-0.6-11.7-0.6c-3.8,0-7.6,0.3-11.4,0.9v60.4h-15.5
	V29.3c6.6-2.3,17.8-4,26.5-4C628,25.3,632.5,25.5,637,25.9"/>
</svg>
