<?xml version="1.0" encoding="utf-8"?>
<!-- Generator: Adobe Illustrator 22.1.0, SVG Export Plug-In . SVG Version: 6.00 Build 0)  -->
<svg version="1.1" id="Layer_1" xmlns="http://www.w3.org/2000/svg" xmlns:xlink="http://www.w3.org/1999/xlink" x="0px" y="0px"
	 viewBox="0 0 80 80" style="enable-background:new 0 0 80 80;" xml:space="preserve">
<style type="text/css">
	.st0{fill:#FFFFFF;}
</style>
<path class="st0" d="M56.8,36.9c-0.1-2.7-0.9-5.3-2.2-7.7l-12.1-21c-0.9-1.6-1.6-3.3-1.9-5.1l-0.6,1c-3,5.2-3,11.6,0,16.8l9.7,16.8
	c3,5.2,3,11.6,0,16.8l-0.5,0.9c-0.4-1.8-1-3.5-1.9-5.1l-8.9-15.4l-5.7-9.8c-0.9-1.6-1.6-3.3-1.9-5.1l-0.5,0.9c-3,5.2-3,11.5,0,16.7
	l0,0L40,54.4c3,5.2,3,11.6,0,16.8l-0.5,0.9c-0.4-1.8-1-3.5-1.9-5.1L25.5,46c-1.6-2.8-2.4-6-2.2-9.1c-13,3.4-21.9,10.6-21.9,18.9
	c0,11.6,17.3,21,38.7,21s38.7-9.4,38.7-21C78.7,47.5,69.7,40.3,56.8,36.9"/>
</svg>
